<?xml version="1.0" encoding="UTF-8"?><svg id="a" xmlns="http://www.w3.org/2000/svg" viewBox="0 0 853.56 152.43"><defs><style>.b,.c{fill:#010101;}.d{fill:none;stroke:#040505;stroke-width:18.95px;}.c{font-family:ArialMT, Arial;font-size:47px;}</style></defs><path class="b" d="M21.74,25.86H98.15V7.6H0V148.74H21.74v-61.82H94.99v-17.89H21.74V25.86h0ZM233.65,7.6h-21.74V94.8c0,27.88-12.78,38.45-35.22,38.45s-35.22-10.56-35.22-38.45V7.6h-21.74V97c0,36.17,24.6,54.89,56.97,54.89s56.97-18.73,56.97-54.89V7.6h0Zm134.07,38.94c-6.86-26.67-25.07-42.09-56.12-42.09-29.26,0-51.47,15.62-51.47,40.03,0,26.13,18.63,33.48,37.08,38.02l25.76,6.33c14.87,3.57,25.97,7.26,25.97,22.17s-13.18,23.37-32.27,23.37-36.84-7.57-39.9-31.24l-21.58,2.15c4.99,30.24,26.86,46.61,61.1,46.61,30.18,0,54.78-13.85,54.78-41.47,0-30.81-20.59-36.48-42.05-41.77l-24.31-5.58c-12.76-2.99-22.46-7.05-22.46-19.15,0-12.76,11.16-21.96,29.14-21.96s30.82,8.57,34.57,26.32l21.75-1.75h0Z"/><path class="d" d="M844.08,76.21c0-36.86-98.54-66.74-220.1-66.74s-220.1,29.88-220.1,66.74,98.54,66.74,220.1,66.74,220.1-29.88,220.1-66.74h0Z"/><text class="c" transform="translate(451.32 95.19)"><tspan x="0" y="0">27 — 31 October</tspan></text></svg>