<?xml version="1.0" encoding="utf-8"?>
<!-- Generator: Adobe Illustrator 26.2.1, SVG Export Plug-In . SVG Version: 6.00 Build 0)  -->
<svg version="1.1" id="Layer_1" xmlns="http://www.w3.org/2000/svg" xmlns:xlink="http://www.w3.org/1999/xlink" x="0px" y="0px"
	 viewBox="0 0 963 889" style="enable-background:new 0 0 963 889;" xml:space="preserve">
<style type="text/css">
	.st0{clip-path:url(#SVGID_00000017495442123777953270000016986083237099390896_);}
	.st1{clip-path:url(#SVGID_00000039851076105970886890000009997528286831761025_);}
	.st2{fill:none;stroke:#E64D3C;stroke-width:2.78;}
	.st3{fill:#E64D3C;}
	.st4{fill:none;stroke:#E64D3C;stroke-width:9.06;}
	.st5{fill:none;stroke:#E64D3C;stroke-width:0.5;}
	.st6{fill:none;stroke:#E64D3C;stroke-width:1.07;stroke-miterlimit:4.27;}
</style>
<rect y="0.3" width="963" height="888.3"/>
<g>
	<g>
		<defs>
			<rect id="SVGID_1_" width="963" height="888.3"/>
		</defs>
		<clipPath id="SVGID_00000011733386395599867560000006033584470384607404_">
			<use xlink:href="#SVGID_1_"  style="overflow:visible;"/>
		</clipPath>
		<g style="clip-path:url(#SVGID_00000011733386395599867560000006033584470384607404_);">
			<g>
				<g>
					<defs>
						<rect id="SVGID_00000142173372303149716980000000359434307108608902_" x="37" y="31" width="890.5" height="1000.9"/>
					</defs>
					<clipPath id="SVGID_00000137095553017115236270000004904003976847707049_">
						<use xlink:href="#SVGID_00000142173372303149716980000000359434307108608902_"  style="overflow:visible;"/>
					</clipPath>
					<g style="clip-path:url(#SVGID_00000137095553017115236270000004904003976847707049_);">
						<path class="st2" d="M238.5,652.8c-17.3,0-31.3,84.5-31.3,188.8s14,188.8,31.3,188.8s31.3-84.5,31.3-188.8
							S255.8,652.8,238.5,652.8L238.5,652.8z M238.5,652.8c-30.8,0-55.8,84.5-55.8,188.8s25,188.8,55.8,188.8s55.8-84.5,55.8-188.8
							S269.3,652.8,238.5,652.8L238.5,652.8z M238.5,652.8c-41.3,0-74.7,84.5-74.7,188.8s33.5,188.8,74.7,188.8
							s74.7-84.5,74.7-188.8S279.7,652.8,238.5,652.8L238.5,652.8z M238.5,652.8c-53.2,0-96.4,84.5-96.4,188.8
							s43.2,188.8,96.4,188.8s96.4-84.5,96.4-188.8S291.7,652.8,238.5,652.8L238.5,652.8z M238.5,652.8
							c-63.9,0-115.8,84.5-115.8,188.8s51.9,188.8,115.8,188.8s115.8-84.5,115.8-188.8S302.4,652.8,238.5,652.8z M238.5,652.8
							c-75.5,0-136.7,84.5-136.7,188.8s61.2,188.8,136.7,188.8s136.7-84.5,136.7-188.8S314,652.8,238.5,652.8z M238.5,652.8
							c-86.8,0-157.2,84.5-157.2,188.8s70.4,188.8,157.2,188.8s157.2-84.5,157.2-188.8S325.3,652.8,238.5,652.8L238.5,652.8z
							 M238.5,652.8c-99.5,0-180.1,84.5-180.1,188.8s80.7,188.8,180.1,188.8s180.1-84.5,180.1-188.8S338,652.8,238.5,652.8z
							 M238.5,652.8c-6.9,0-12.6,84.5-12.6,188.8s5.6,188.8,12.6,188.8c6.9,0,12.5-84.5,12.5-188.8S245.4,652.8,238.5,652.8
							L238.5,652.8z M408.5,652.8c-30.8,0-55.8,84.5-55.8,188.8s25,188.8,55.8,188.8s55.8-84.5,55.8-188.8S439.3,652.8,408.5,652.8
							L408.5,652.8z M408.5,652.8c-53.2,0-96.4,84.5-96.4,188.8s43.2,188.8,96.4,188.8s96.4-84.5,96.4-188.8
							S461.7,652.8,408.5,652.8L408.5,652.8z M408.5,652.8c-75.5,0-136.7,84.5-136.7,188.8s61.2,188.8,136.7,188.8
							s136.7-84.5,136.7-188.8S484,652.8,408.5,652.8z M408.5,652.8c-99.5,0-180.1,84.5-180.1,188.8s80.7,188.8,180.1,188.8
							s180.1-84.5,180.1-188.8S508,652.8,408.5,652.8z M408.5,652.8c-6.9,0-12.5,84.5-12.5,188.8s5.6,188.8,12.5,188.8
							S421,945.9,421,841.7S415.4,652.8,408.5,652.8L408.5,652.8z"/>
						<path class="st3" d="M47.4,43.4h36.5v-8.7H37v67.5h10.4V72.6h35V64h-35V43.4L47.4,43.4z M148.7,34.6h-10.4v41.7
							c0,13.3-6.1,18.4-16.8,18.4s-16.8-5.1-16.8-18.4V34.6H94.2v42.8c0,17.3,11.8,26.3,27.2,26.3s27.2-9,27.2-26.3V34.6H148.7z
							 M212.9,53.3c-3.3-12.8-12-20.1-26.9-20.1c-14,0-24.6,7.5-24.6,19.1c0,12.5,8.9,16,17.7,18.2l12.3,3
							c7.1,1.7,12.4,3.5,12.4,10.6c0,7-6.3,11.2-15.4,11.2c-9.3,0-17.6-3.6-19.1-14.9l-10.3,1c2.4,14.5,12.8,22.3,29.2,22.3
							c14.4,0,26.2-6.6,26.2-19.8c0-14.7-9.9-17.5-20.1-20l-11.6-2.7c-6.1-1.3-10.7-3.3-10.7-9.1c0-6.1,5.3-10.5,13.9-10.5
							c8.6,0,14.7,4.1,16.5,12.6L212.9,53.3L212.9,53.3z"/>
						<path class="st4" d="M440.7,67.5c0-17.6-47.1-31.9-105.3-31.9S230.1,49.8,230.1,67.5s47.1,31.9,105.3,31.9
							S440.7,85.1,440.7,67.5z"/>
						<path class="st5" d="M604.9,52.2h13v3.2h-13v11H601v-25h17.4v3.2h-13.5V52.2z"/>
						<path class="st5" d="M641.4,51.8V55h-13v8H642v3.3h-17.4v-25H642v3.2h-13.5v7.3L641.4,51.8z"/>
						<path class="st5" d="M663,48.5c-0.7-3.2-3-4.7-6.1-4.7s-5.2,1.6-5.2,3.9c0,2.3,1.7,2.9,4,3.4l4.3,1c3.8,0.9,7.5,2,7.5,7.4
							c0,4.9-4.4,7.3-9.7,7.3c-6.1,0-9.9-2.9-10.8-8.3l3.8-0.4c0.5,4.2,3.6,5.5,7.1,5.5s5.7-1.5,5.7-4.1s-2-3.3-4.6-3.9l-4.6-1.1
							c-3.3-0.8-6.6-2.1-6.6-6.7c0-4.3,3.9-7.1,9.1-7.1c5.5,0,8.7,2.7,9.9,7.5L663,48.5z"/>
						<path class="st5" d="M684.5,44.6v21.7h-3.8V44.6h-8.4v-3.3h20.6v3.3H684.5z"/>
						<path class="st5" d="M699,41.3h3.8v25H699V41.3z"/>
						<path class="st5" d="M722.5,66.3h-4.2l-9.5-25h4.2l7.3,20.6h0.1l7.4-20.6h4.2L722.5,66.3z"/>
						<path class="st5" d="M739.9,59.6l-2.5,6.7h-4.2l9.8-25h4.9l9.8,25h-4.2l-2.5-6.7C751,59.6,739.9,59.6,739.9,59.6z M745.5,44.8
							L745.5,44.8l-4.4,11.6h8.7L745.5,44.8z"/>
						<path class="st5" d="M763.5,41.3h3.8V63H781v3.3h-17.5V41.3z"/>
						<path class="st5" d="M802.4,59.6l-2.4,6.7h-4.2l9.8-25h4.9l9.8,25H816l-2.5-6.7C813.5,59.6,802.4,59.6,802.4,59.6z M808,44.8
							L808,44.8l-4.4,11.6h8.7L808,44.8z"/>
						<path class="st5" d="M842.5,66.3l-12.8-19.6h-0.1v19.6H826v-25h4.3L843,60.6h0.1V41.3h3.6v25H842.5z"/>
						<path class="st5" d="M874.4,57.1c0,6.4-4.3,9.7-10.1,9.7c-5.7,0-10.1-3.3-10.1-9.7V41.3h3.8v15.5c0,4.9,2.3,6.8,6.2,6.8
							c4,0,6.2-1.9,6.2-6.8V41.3h3.8v15.8H874.4z"/>
						<path class="st5" d="M885.6,59.6l-2.5,6.7H879l9.8-25h4.9l9.8,25h-4.2l-2.5-6.7C896.8,59.6,885.6,59.6,885.6,59.6z
							 M891.2,44.8L891.2,44.8l-4.4,11.6h8.7L891.2,44.8z"/>
						<path class="st5" d="M909.3,41.3h3.8V63h13.7v3.3h-17.5V41.3z"/>
						<path class="st3" d="M604.9,52.2h13v3.2h-13v11H601v-25h17.4v3.2h-13.5V52.2z"/>
						<path class="st3" d="M641.4,51.8V55h-13v8H642v3.3h-17.4v-25H642v3.2h-13.5v7.3L641.4,51.8z"/>
						<path class="st3" d="M663,48.5c-0.7-3.2-3-4.7-6.1-4.7s-5.2,1.6-5.2,3.9c0,2.3,1.7,2.9,4,3.4l4.3,1c3.8,0.9,7.5,2,7.5,7.4
							c0,4.9-4.4,7.3-9.7,7.3c-6.1,0-9.9-2.9-10.8-8.3l3.8-0.4c0.5,4.2,3.6,5.5,7.1,5.5s5.7-1.5,5.7-4.1s-2-3.3-4.6-3.9l-4.6-1.1
							c-3.3-0.8-6.6-2.1-6.6-6.7c0-4.3,3.9-7.1,9.1-7.1c5.5,0,8.7,2.7,9.9,7.5L663,48.5z"/>
						<path class="st3" d="M684.5,44.6v21.7h-3.8V44.6h-8.4v-3.3h20.6v3.3H684.5z"/>
						<path class="st3" d="M699,41.3h3.8v25H699V41.3z"/>
						<path class="st3" d="M722.5,66.3h-4.2l-9.5-25h4.2l7.3,20.6h0.1l7.4-20.6h4.2L722.5,66.3z"/>
						<path class="st3" d="M739.9,59.6l-2.5,6.7h-4.2l9.8-25h4.9l9.8,25h-4.2l-2.5-6.7C751,59.6,739.9,59.6,739.9,59.6z M745.5,44.8
							L745.5,44.8l-4.4,11.6h8.7L745.5,44.8z"/>
						<path class="st3" d="M763.5,41.3h3.8V63H781v3.3h-17.5V41.3z"/>
						<path class="st3" d="M802.4,59.6l-2.4,6.7h-4.2l9.8-25h4.9l9.8,25H816l-2.5-6.7C813.5,59.6,802.4,59.6,802.4,59.6z M808,44.8
							L808,44.8l-4.4,11.6h8.7L808,44.8z"/>
						<path class="st3" d="M842.5,66.3l-12.8-19.6h-0.1v19.6H826v-25h4.3L843,60.6h0.1V41.3h3.6v25H842.5z"/>
						<path class="st3" d="M874.4,57.1c0,6.4-4.3,9.7-10.1,9.7c-5.7,0-10.1-3.3-10.1-9.7V41.3h3.8v15.5c0,4.9,2.3,6.8,6.2,6.8
							c4,0,6.2-1.9,6.2-6.8V41.3h3.8v15.8H874.4z"/>
						<path class="st3" d="M885.6,59.6l-2.5,6.7H879l9.8-25h4.9l9.8,25h-4.2l-2.5-6.7C896.8,59.6,885.6,59.6,885.6,59.6z
							 M891.2,44.8L891.2,44.8l-4.4,11.6h8.7L891.2,44.8z"/>
						<path class="st3" d="M909.3,41.3h3.8V63h13.7v3.3h-17.5V41.3z"/>
						<path class="st5" d="M654.7,83.3c7.1,0,11.9,4.2,11.9,12.5s-4.8,12.5-11.9,12.5h-9.5v-25H654.7z M654.2,105.1
							c5.4,0,8.4-3.2,8.4-9.3s-3.1-9.3-8.4-9.3H649V105h5.2V105.1z"/>
						<path class="st5" d="M690.4,93.8V97h-13v8H691v3.3h-17.4v-25H691v3.2h-13.5v7.3H690.4z"/>
						<path class="st5" d="M720.3,108.3h-4.2l-9.5-25h4.2l7.3,20.6h0.1l7.4-20.6h4.2L720.3,108.3z"/>
						<path class="st5" d="M735.8,83.3h3.9v25h-3.9V83.3z"/>
						<path class="st5" d="M757,83.3c7.1,0,11.9,4.2,11.9,12.5s-4.8,12.5-11.9,12.5h-9.5v-25H757z M756.5,105.1
							c5.4,0,8.5-3.2,8.5-9.3s-3.1-9.3-8.5-9.3h-5.2V105h5.2V105.1z"/>
						<path class="st5" d="M792.7,93.8V97h-13v8h13.6v3.3h-17.4v-25h17.4v3.2h-13.5v7.3H792.7z"/>
						<path class="st5" d="M822.5,95.8c0,8.1-4.8,13.1-11.8,13.1c-7.1,0-11.8-5-11.8-13.1s4.8-13.1,11.8-13.1
							C817.8,82.7,822.5,87.7,822.5,95.8z M818.6,95.8c0-6.2-3.1-9.8-7.9-9.8c-4.8,0-7.9,3.6-7.9,9.8c0,6.2,3.1,9.8,7.9,9.8
							C815.6,105.6,818.6,102,818.6,95.8z"/>
						<path class="st5" d="M833,101.6l-2.5,6.7h-4.2l9.8-25h4.9l9.8,25h-4.2l-2.5-6.7H833z M838.6,86.8L838.6,86.8l-4.4,11.6h8.7
							L838.6,86.8z"/>
						<path class="st5" d="M866.7,98.5h-6.2v9.8h-3.9v-25h11.6c5.6,0,8.6,3,8.6,7.6c0.1,1.7-0.5,3.5-1.6,4.8
							c-1.1,1.4-2.7,2.2-4.4,2.5l6.3,10.1h-4.5L866.7,98.5z M867.7,95.2c3.4,0,5.2-1.6,5.2-4.4s-1.8-4.3-5.2-4.3h-7.2v8.7
							C860.5,95.2,867.7,95.2,867.7,95.2z"/>
						<path class="st5" d="M894.2,86.6v21.7h-3.9V86.6H882v-3.3h20.6v3.3H894.2z"/>
						<path class="st5" d="M925.5,93.8V97h-13v8H926v3.3h-17.4v-25H926v3.2h-13.5v7.3H925.5z"/>
						<path class="st3" d="M654.7,83.3c7.1,0,11.9,4.2,11.9,12.5s-4.8,12.5-11.9,12.5h-9.5v-25H654.7z M654.2,105.1
							c5.4,0,8.4-3.2,8.4-9.3s-3.1-9.3-8.4-9.3H649V105h5.2V105.1z"/>
						<path class="st3" d="M690.4,93.8V97h-13v8H691v3.3h-17.4v-25H691v3.2h-13.5v7.3H690.4z"/>
						<path class="st3" d="M720.3,108.3h-4.2l-9.5-25h4.2l7.3,20.6h0.1l7.4-20.6h4.2L720.3,108.3z"/>
						<path class="st3" d="M735.8,83.3h3.9v25h-3.9V83.3z"/>
						<path class="st3" d="M757,83.3c7.1,0,11.9,4.2,11.9,12.5s-4.8,12.5-11.9,12.5h-9.5v-25H757z M756.5,105.1
							c5.4,0,8.5-3.2,8.5-9.3s-3.1-9.3-8.5-9.3h-5.2V105h5.2V105.1z"/>
						<path class="st3" d="M792.7,93.8V97h-13v8h13.6v3.3h-17.4v-25h17.4v3.2h-13.5v7.3H792.7z"/>
						<path class="st3" d="M822.5,95.8c0,8.1-4.8,13.1-11.8,13.1c-7.1,0-11.8-5-11.8-13.1s4.8-13.1,11.8-13.1
							C817.8,82.7,822.5,87.7,822.5,95.8z M818.6,95.8c0-6.2-3.1-9.8-7.9-9.8c-4.8,0-7.9,3.6-7.9,9.8c0,6.2,3.1,9.8,7.9,9.8
							C815.6,105.6,818.6,102,818.6,95.8z"/>
						<path class="st3" d="M833,101.6l-2.5,6.7h-4.2l9.8-25h4.9l9.8,25h-4.2l-2.5-6.7H833z M838.6,86.8L838.6,86.8l-4.4,11.6h8.7
							L838.6,86.8z"/>
						<path class="st3" d="M866.7,98.5h-6.2v9.8h-3.9v-25h11.6c5.6,0,8.7,3,8.7,7.6c0.1,1.7-0.5,3.5-1.6,4.8
							c-1.1,1.4-2.7,2.2-4.4,2.5l6.3,10.1h-4.5L866.7,98.5z M867.7,95.2c3.4,0,5.2-1.6,5.2-4.4s-1.8-4.3-5.2-4.3h-7.2v8.7
							C860.5,95.2,867.7,95.2,867.7,95.2z"/>
						<path class="st3" d="M894.2,86.6v21.7h-3.9V86.6H882v-3.3h20.6v3.3H894.2z"/>
						<path class="st3" d="M925.5,93.8V97h-13v8H926v3.3h-17.3v-25h17.4v3.2h-13.5v7.3H925.5z"/>
						<path class="st5" d="M547.5,125.3h3.9v25h-3.9V125.3z"/>
						<path class="st5" d="M575.8,150.3L563,130.7h-0.1v19.6h-3.6v-25h4.3l12.6,19.3h0.1v-19.3h3.6v25H575.8z"/>
						<path class="st5" d="M598.3,128.6v21.7h-3.9v-21.7H586v-3.3h20.6v3.3H598.3z"/>
						<path class="st5" d="M629.6,135.8v3.2h-13v8h13.5v3.3h-17.3v-25h17.4v3.2h-13.5v7.3H629.6z"/>
						<path class="st5" d="M647.1,140.5h-6.2v9.8h-3.8v-25h11.6c5.6,0,8.7,3,8.7,7.6c0.1,1.7-0.5,3.5-1.6,4.8
							c-1.1,1.4-2.7,2.2-4.4,2.5l6.3,10.1h-4.5L647.1,140.5z M648.2,137.2c3.4,0,5.2-1.6,5.2-4.3s-1.8-4.4-5.2-4.4h-7.3v8.7H648.2z"
							/>
						<path class="st5" d="M680.6,150.3l-12.8-19.6h-0.1v19.6h-3.6v-25h4.3l12.6,19.3h0.1v-19.3h3.6v25H680.6z"/>
						<path class="st5" d="M697.2,143.6l-2.5,6.7h-4.2l9.8-25h4.9l9.8,25h-4.2l-2.5-6.7H697.2z M702.8,128.8L702.8,128.8l-4.4,11.6
							h8.7L702.8,128.8z"/>
						<path class="st5" d="M741.3,142.2c-0.5,2.5-1.9,4.7-3.9,6.3s-4.5,2.4-7,2.4c-7,0-11.8-5-11.8-13.1s4.8-13,11.8-13
							c2.2-0.1,4.4,0.6,6.3,1.8c1.9,1.2,3.3,3,4.1,5.1l-3.8,0.8c-0.5-1.4-1.4-2.5-2.6-3.3c-1.2-0.8-2.6-1.2-4.1-1.2
							c-4.8,0-7.9,3.6-7.9,9.8s3,9.9,7.9,9.9c4.2,0,6.3-2.9,7-6L741.3,142.2z"/>
						<path class="st5" d="M748,125.3h3.8v25H748V125.3z"/>
						<path class="st5" d="M782.6,137.8c0,8.1-4.8,13.1-11.8,13.1s-11.8-5-11.8-13.1s4.8-13,11.8-13S782.6,129.8,782.6,137.8z
							 M778.7,137.8c0-6.2-3.1-9.8-7.9-9.8s-7.9,3.6-7.9,9.8s3.1,9.8,7.9,9.8S778.7,144,778.7,137.8L778.7,137.8z"/>
						<path class="st5" d="M806,150.3l-12.7-19.6h-0.1v19.6h-3.6v-25h4.3l12.6,19.3h0.1v-19.3h3.6v25H806z"/>
						<path class="st5" d="M822.6,143.6l-2.5,6.7h-4.2l9.8-25h4.9l9.8,25h-4.2l-2.5-6.7H822.6z M828.2,128.8H828l-4.3,11.6h8.7
							L828.2,128.8z"/>
						<path class="st5" d="M846.1,125.3h3.9V147h13.7v3.3h-17.5v-25H846.1z"/>
						<path class="st5" d="M889.7,125.3c7.1,0,11.9,4.2,11.9,12.5s-4.8,12.5-11.9,12.5h-9.5v-25H889.7z M889.2,147.1
							c5.4,0,8.5-3.2,8.5-9.3s-3.1-9.3-8.5-9.3H884V147h5.2V147.1z"/>
						<path class="st5" d="M925.4,135.8v3.2h-13v8H926v3.3h-17.4v-25H926v3.2h-13.5v7.3H925.4z"/>
						<path class="st3" d="M547.5,125.3h3.9v25h-3.9V125.3z"/>
						<path class="st3" d="M575.8,150.3L563,130.7h-0.1v19.6h-3.6v-25h4.3l12.6,19.3h0.1v-19.3h3.6v25H575.8z"/>
						<path class="st3" d="M598.3,128.6v21.7h-3.8v-21.7h-8.4v-3.3h20.6v3.3H598.3z"/>
						<path class="st3" d="M629.6,135.8v3.2h-13v8h13.5v3.3h-17.3v-25h17.4v3.2h-13.5v7.3H629.6z"/>
						<path class="st3" d="M647.1,140.5h-6.2v9.8h-3.8v-25h11.6c5.6,0,8.7,3,8.7,7.6c0.1,1.7-0.5,3.5-1.6,4.8
							c-1.1,1.4-2.7,2.2-4.4,2.5l6.3,10.1h-4.5L647.1,140.5z M648.2,137.2c3.4,0,5.2-1.6,5.2-4.3s-1.8-4.4-5.2-4.4h-7.3v8.7H648.2z"
							/>
						<path class="st3" d="M680.6,150.3l-12.8-19.6h-0.1v19.6h-3.6v-25h4.3l12.6,19.3h0.1v-19.3h3.6v25H680.6z"/>
						<path class="st3" d="M697.2,143.6l-2.5,6.7h-4.2l9.8-25h4.9l9.8,25h-4.2l-2.5-6.7H697.2z M702.8,128.8L702.8,128.8l-4.4,11.6
							h8.7L702.8,128.8z"/>
						<path class="st3" d="M741.3,142.2c-0.5,2.5-1.9,4.7-3.9,6.3s-4.5,2.4-7,2.4c-6.9,0-11.8-5-11.8-13.1s4.8-13,11.8-13
							c2.2-0.1,4.5,0.6,6.3,1.8c1.9,1.2,3.3,3,4.1,5.1l-3.8,0.8c-0.5-1.4-1.4-2.5-2.6-3.3c-1.2-0.8-2.6-1.2-4.1-1.2
							c-4.8,0-7.9,3.6-7.9,9.8s3,9.9,7.9,9.9c4.2,0,6.3-2.9,7-6L741.3,142.2z"/>
						<path class="st3" d="M748,125.3h3.8v25H748V125.3z"/>
						<path class="st3" d="M782.6,137.8c0,8.1-4.8,13.1-11.8,13.1s-11.8-5-11.8-13.1s4.8-13,11.8-13S782.6,129.8,782.6,137.8z
							 M778.7,137.8c0-6.2-3.1-9.8-7.9-9.8s-7.9,3.6-7.9,9.8s3.1,9.8,7.9,9.8S778.7,144,778.7,137.8L778.7,137.8z"/>
						<path class="st3" d="M806,150.3l-12.7-19.6h-0.1v19.6h-3.6v-25h4.3l12.6,19.3h0.1v-19.3h3.6v25H806z"/>
						<path class="st3" d="M822.6,143.6l-2.5,6.7h-4.2l9.8-25h4.9l9.8,25h-4.2l-2.5-6.7H822.6z M828.2,128.8H828l-4.3,11.6h8.7
							L828.2,128.8z"/>
						<path class="st3" d="M846.1,125.3h3.9V147h13.7v3.3h-17.5v-25H846.1z"/>
						<path class="st3" d="M889.7,125.3c7.1,0,11.9,4.2,11.9,12.5s-4.8,12.5-11.9,12.5h-9.5v-25H889.7z M889.2,147.1
							c5.4,0,8.5-3.2,8.5-9.3s-3.1-9.3-8.5-9.3H884V147h5.2V147.1z"/>
						<path class="st3" d="M925.4,135.8v3.2h-13v8H926v3.3h-17.4v-25H926v3.2h-13.5v7.3H925.4z"/>
						<path class="st5" d="M788.6,167.3h3.8V189h13.7v3.3h-17.5V167.3z"/>
						<path class="st5" d="M812.3,167.3h3.8v25h-3.8V167.3z"/>
						<path class="st5" d="M838.6,174.5c-0.7-3.1-3-4.7-6.1-4.7s-5.2,1.6-5.2,3.9c0,2.3,1.7,2.9,4,3.4l4.3,1
							c3.8,0.9,7.4,1.9,7.4,7.4c0,4.9-4.4,7.3-9.7,7.3c-6.1,0-9.9-2.9-10.8-8.3l3.8-0.4c0.5,4.2,3.6,5.5,7.1,5.5s5.7-1.5,5.7-4.1
							s-2-3.3-4.6-3.9l-4.6-1.1c-3.3-0.8-6.6-2.1-6.6-6.7c0-4.3,3.9-7.1,9.1-7.1c5.5,0,8.7,2.7,9.9,7.4L838.6,174.5z"/>
						<path class="st5" d="M860.9,167.3c4.9,0,7.6,2.7,7.6,6.8c0.1,1-0.2,2.1-0.8,3s-1.4,1.6-2.4,1.9v0.1c2.6,0.9,4,2.9,4,6
							c0,4.3-2.8,7.2-8,7.2h-11.5v-25H860.9z M860.4,177.9c2.8,0,4.2-1.3,4.2-3.7s-1.5-3.7-4.2-3.7h-6.6v7.4H860.4z M860.8,189
							c3.1,0,4.7-1.5,4.7-4s-1.6-4-4.7-4h-7v8H860.8z"/>
						<path class="st5" d="M899,179.8c0,8.1-4.8,13.1-11.8,13.1c-7.1,0-11.8-5-11.8-13.1s4.8-13.1,11.8-13.1
							C894.2,166.8,899,171.8,899,179.8z M895.1,179.8c0-6.2-3.1-9.8-7.9-9.8c-4.8,0-7.9,3.6-7.9,9.8s3.1,9.8,7.9,9.8
							S895,186,895.1,179.8L895.1,179.8z"/>
						<path class="st5" d="M909.4,185.6l-2.5,6.7h-4.2l9.8-25h4.9l9.8,25H923l-2.5-6.7H909.4z M915,170.8L915,170.8l-4.4,11.6h8.7
							L915,170.8z"/>
						<path class="st3" d="M788.6,167.3h3.8V189h13.7v3.3h-17.5V167.3z"/>
						<path class="st3" d="M812.1,167.3h3.9v25h-3.8L812.1,167.3z"/>
						<path class="st3" d="M838.6,174.5c-0.7-3.1-3-4.7-6.1-4.7s-5.2,1.6-5.2,3.9c0,2.3,1.7,2.9,4,3.4l4.3,1
							c3.8,0.9,7.4,1.9,7.4,7.4c0,4.9-4.4,7.3-9.7,7.3c-6.1,0-9.9-2.9-10.8-8.3l3.8-0.4c0.5,4.2,3.6,5.5,7.1,5.5s5.7-1.5,5.7-4.1
							s-2-3.3-4.6-3.9l-4.6-1.1c-3.3-0.8-6.6-2.1-6.6-6.7c0-4.3,3.9-7.1,9.1-7.1c5.5,0,8.7,2.7,9.9,7.5L838.6,174.5z"/>
						<path class="st3" d="M861,167.3c4.9,0,7.6,2.7,7.6,6.8c0.1,1-0.2,2.1-0.8,2.9c-0.6,0.9-1.4,1.5-2.4,1.9v0.1c2.6,0.9,4,2.9,4,6
							c0,4.3-2.8,7.2-8,7.2h-11.5v-25H861V167.3z M860.5,177.9c2.8,0,4.2-1.3,4.2-3.7s-1.5-3.7-4.2-3.7h-6.6v7.4H860.5z M860.9,189
							c3.1,0,4.7-1.5,4.7-4s-1.6-4-4.7-4h-7v8H860.9z"/>
						<path class="st3" d="M899,179.8c0,8.1-4.8,13.1-11.8,13.1c-7.1,0-11.8-5-11.8-13.1s4.8-13.1,11.8-13.1
							C894.2,166.8,899,171.8,899,179.8z M895.1,179.8c0-6.2-3.1-9.8-7.9-9.8c-4.8,0-7.9,3.6-7.9,9.8s3.1,9.8,7.9,9.8
							S895,186,895.1,179.8L895.1,179.8z"/>
						<path class="st3" d="M909.4,185.6l-2.5,6.7h-4.2l9.8-25h4.9l9.8,25H923l-2.5-6.7H909.4z M915,170.8L915,170.8l-4.4,11.6h8.7
							L915,170.8z"/>
						<path class="st6" d="M207.4,338.1c-8.8,0-17.4-2.6-24.7-7.5s-13-11.8-16.4-20c-3.4-8.1-4.3-17.1-2.5-25.7
							c1.7-8.6,6-16.6,12.2-22.8c6.2-6.2,14.1-10.5,22.8-12.2c8.6-1.7,17.6-0.8,25.7,2.5c8.1,3.4,15.1,9.1,20,16.4
							s7.5,15.9,7.5,24.7c0,5.8-1.1,11.6-3.4,17c-2.2,5.4-5.5,10.3-9.6,14.4s-9,7.4-14.4,9.6C219,336.9,213.3,338.1,207.4,338.1
							L207.4,338.1z M225.2,332.6c17.5-8,23.8-31.9,14-53.4s-32-32.5-49.5-24.5s-23.8,31.9-14,53.5
							C185.5,329.6,207.6,340.6,225.2,332.6z"/>
						<path class="st6" d="M278,303.2V317c0,10.8,2.8,18.2,8.3,19.6h-24.8c5.5-1.4,8.2-8.8,8.3-19.6v-46.9
							c-0.1-10.8-2.8-18.2-8.3-19.6H294c24.6,0,41.9,6.5,40.6,25.4c-1.1,15-16,27.3-40.6,27.3L278,303.2L278,303.2z M278,252.2v49.3
							h16c10.9,0,22.1-3.5,28.6-13.8c5.9-9.2,6.6-28.5-10.9-33.4c-5.8-1.5-11.8-2.2-17.8-2.1L278,252.2L278,252.2z"/>
						<path class="st6" d="M398.5,317.8l-1.9,18.9h-55.4c5.5-1.4,8.2-8.8,8.3-19.6v-46.9c0-10.8-2.8-18.2-8.3-19.6h53.1l1.9,18.9
							c-1.4-5.5-8.8-17.1-19.6-17.2h-19v40.5h9.8c10.8-0.1,17.2-2,19.6-7.7v17c-2.4-5.7-8.8-7.6-19.6-7.7h-9.8V335h21.2
							C389.7,334.9,397.1,323.3,398.5,317.8z"/>
						<path class="st6" d="M468.5,336.6l-46.7-80V317c0.1,10.8,6,18.2,11.6,19.6h-24.8c5.5-1.4,11.5-8.8,11.6-19.6v-46.9
							c-0.1-10.8-6-18.2-11.6-19.6h17.9l45.2,77.6v-58c-0.1-10.8-6-18.2-11.6-19.6H485c-5.5,1.4-11.5,8.8-11.6,19.6V331l3.3,5.6
							H468.5L468.5,336.6z"/>
						<path class="st3" d="M207.4,338.1c-8.8,0-17.4-2.6-24.7-7.5s-13-11.8-16.4-20c-3.4-8.1-4.3-17.1-2.5-25.7
							c1.7-8.6,6-16.6,12.2-22.8c6.2-6.2,14.1-10.5,22.8-12.2c8.6-1.7,17.6-0.8,25.7,2.5c8.1,3.4,15.1,9.1,20,16.4
							s7.5,15.9,7.5,24.7c0,5.8-1.1,11.6-3.4,17c-2.2,5.4-5.5,10.3-9.6,14.4s-9,7.4-14.4,9.6C219,336.9,213.3,338.1,207.4,338.1
							L207.4,338.1z M225.2,332.6c17.5-8,23.8-31.9,14-53.4s-32-32.5-49.5-24.5s-23.8,31.9-14,53.5
							C185.5,329.6,207.6,340.6,225.2,332.6z"/>
						<path class="st3" d="M278,303.2V317c0,10.8,2.8,18.2,8.3,19.6h-24.8c5.5-1.4,8.2-8.8,8.3-19.6v-46.9
							c-0.1-10.8-2.8-18.2-8.3-19.6H294c24.6,0,41.9,6.5,40.6,25.4c-1.1,15-16,27.3-40.6,27.3L278,303.2L278,303.2z M278,252.2v49.3
							h16c10.9,0,22.1-3.5,28.6-13.8c5.9-9.2,6.6-28.5-10.9-33.4c-5.8-1.5-11.8-2.2-17.8-2.1L278,252.2L278,252.2z"/>
						<path class="st3" d="M398.5,317.8l-1.9,18.9h-55.4c5.5-1.4,8.2-8.8,8.3-19.6v-46.9c-0.1-10.8-2.8-18.2-8.3-19.6h53.1l1.9,18.9
							c-1.4-5.5-8.8-17.1-19.6-17.2h-19v40.5h9.8c10.9-0.1,17.2-2,19.6-7.7v17c-2.4-5.7-8.8-7.6-19.6-7.7h-9.8V335h21.2
							C389.7,334.9,397,323.3,398.5,317.8z"/>
						<path class="st3" d="M468.5,336.6l-46.7-80V317c0.1,10.8,6,18.2,11.6,19.6h-24.8c5.5-1.4,11.5-8.8,11.6-19.6v-46.9
							c-0.1-10.8-6-18.2-11.6-19.6h17.9l45.2,77.6v-58c-0.1-10.8-6-18.2-11.6-19.6H485c-5.5,1.4-11.5,8.8-11.6,19.6V331l3.3,5.6
							H468.5L468.5,336.6z"/>
						<path class="st6" d="M439.2,468l2.7,2.1c-5.6,6.6-13.1,11.4-21.4,13.8s-17.2,2.3-25.5-0.2c-8.3-2.6-15.6-7.5-21.2-14.2
							c-5.5-6.7-9-14.8-9.9-23.5s0.6-17.3,4.6-25.1c3.9-7.7,10-14.1,17.6-18.4c7.5-4.3,16.1-6.3,24.8-5.8c8.7,0.5,17,3.6,23.9,8.8
							l-5.8,6.9c-11.1-11.1-25.8-16.1-38.6-10.2c-17.5,8-23.8,31.9-14,53.5c9.8,21.5,32,32.5,49.5,24.5
							C431.5,477.6,436.2,473.3,439.2,468L439.2,468z"/>
						<path class="st6" d="M531.6,484.2h-24.8c5.5-1.4,4.8-9.5,1.2-19.6l-8.2-22.6h-26.1l-8.2,22.6c-3.6,10.1-0.9,18.2,4.7,19.6
							h-24.8c5.5-1.4,14.5-8.7,18.5-19.6l22.1-60.8l-2.1-5.8h8.2l24.2,66.5C520.1,475.5,526,482.8,531.6,484.2z M499.1,440.3
							l-12.4-34.1l-12.4,34.1H499.1z"/>
						<path class="st6" d="M596.6,465.4l-1.9,18.9h-53.2c5.5-1.4,8.2-8.8,8.3-19.6v-46.9c-0.1-10.9-2.8-18.2-8.3-19.6h24.8
							c-5.5,1.4-8.2,8.8-8.3,19.6v64.8h19C587.8,482.5,595.2,470.9,596.6,465.4z"/>
						<path class="st6" d="M661.1,465.4l-1.9,18.9H606c5.5-1.4,8.2-8.8,8.3-19.6v-46.9c-0.1-10.9-2.8-18.2-8.3-19.6h24.8
							c-5.5,1.4-8.2,8.8-8.3,19.6v64.8h19C652.4,482.5,659.7,470.9,661.1,465.4z"/>
						<path class="st3" d="M439.2,468l2.7,2.1c-5.6,6.6-13.1,11.4-21.4,13.8s-17.2,2.3-25.5-0.2c-8.3-2.6-15.6-7.5-21.2-14.2
							c-5.5-6.7-9-14.8-9.9-23.5s0.6-17.3,4.6-25.1c3.9-7.7,10-14.1,17.6-18.4c7.5-4.3,16.1-6.3,24.8-5.8c8.7,0.5,17,3.6,23.9,8.8
							l-5.8,6.9c-11.1-11.1-25.8-16.1-38.6-10.2c-17.5,8-23.8,31.9-14,53.5c9.8,21.5,32,32.5,49.5,24.5
							C431.5,477.6,436.2,473.3,439.2,468L439.2,468z"/>
						<path class="st3" d="M531.6,484.2h-24.8c5.5-1.4,4.8-9.5,1.2-19.6l-8.2-22.6h-26.1l-8.2,22.6c-3.6,10.1-0.9,18.2,4.7,19.6
							h-24.8c5.5-1.4,14.5-8.7,18.5-19.6l22.1-60.8l-2.1-5.8h8.2l24.2,66.5C520.1,475.5,526,482.8,531.6,484.2z M499.1,440.3
							l-12.4-34.1l-12.4,34.1H499.1z"/>
						<path class="st3" d="M596.6,465.4l-1.9,18.9h-53.2c5.5-1.4,8.2-8.8,8.3-19.6v-46.9c-0.1-10.9-2.8-18.2-8.3-19.6h24.8
							c-5.5,1.4-8.2,8.8-8.3,19.6v64.8h19C587.8,482.5,595.2,470.9,596.6,465.4z"/>
						<path class="st3" d="M661.1,465.4l-1.9,18.9H606c5.5-1.4,8.2-8.8,8.3-19.6v-46.9c-0.1-10.9-2.8-18.2-8.3-19.6h24.8
							c-5.5,1.4-8.2,8.8-8.3,19.6v64.8h19C652.4,482.5,659.7,470.9,661.1,465.4z"/>
						<path class="st6" d="M574.2,630.2h44.3v1.7H566c0-35.3,45.5-37.5,45.5-66.9c0-11.4-6.6-19-16.9-19c-6.6,0-14.7,7.2-16,12.9
							l-5.1-6.4c6.3-5.2,12.6-8.2,20.9-8.2c17.6,0,25.2,12.9,25.2,22.4C619.7,595.3,578.1,597.6,574.2,630.2z"/>
						<path class="st6" d="M693.2,588.8c0,24.5-11.9,44.5-30,44.5s-30-20-30-44.5s11.9-44.5,30-44.5S693.2,564.2,693.2,588.8z
							 M685.2,588.9c0-11.4-2.2-22.1-6.1-30.2c-4.1-8.4-9.8-13.1-15.8-13.1s-11.7,4.6-15.8,13.1c-4,8.1-6.1,18.8-6.1,30.2
							s2.2,22.1,6.1,30.2c4.1,8.4,9.8,13.1,15.8,13.1s11.7-4.7,15.8-13.1C683,611,685.1,600.3,685.2,588.9L685.2,588.9z"/>
						<path class="st6" d="M711.1,630.2h44.3v1.7h-52.5c0-35.3,45.5-37.5,45.5-66.9c0-11.4-6.6-19-16.9-19c-6.6,0-14.7,7.2-16,12.9
							l-5.1-6.4c6.3-5.2,12.6-8.2,20.9-8.2c17.6,0,25.2,12.9,25.2,22.4C756.5,595.3,714.9,597.6,711.1,630.2z"/>
						<path class="st6" d="M778,630.2h44.3v1.7h-52.6c0-35.3,45.5-37.5,45.5-66.9c0-11.4-6.6-19-16.9-19c-6.6,0-14.7,7.2-16,12.9
							l-5.1-6.4c6.3-5.2,12.6-8.2,20.9-8.2c17.6,0,25.2,12.9,25.2,22.4C823.4,595.3,781.8,597.6,778,630.2z"/>
						<path class="st3" d="M574.2,630.2h44.3v1.7H566c0-35.3,45.5-37.5,45.5-66.9c0-11.4-6.6-19-16.9-19c-6.6,0-14.7,7.2-16,12.9
							l-5.1-6.4c6.3-5.2,12.6-8.2,20.9-8.2c17.6,0,25.2,12.9,25.2,22.4C619.7,595.3,578.1,597.6,574.2,630.2z"/>
						<path class="st3" d="M693.2,588.8c0,24.5-11.9,44.5-30,44.5s-30-20-30-44.5s11.9-44.5,30-44.5S693.2,564.2,693.2,588.8z
							 M685.2,588.9c0-11.4-2.2-22.1-6.1-30.2c-4.1-8.4-9.8-13.1-15.8-13.1s-11.7,4.6-15.8,13.1c-4,8.1-6.1,18.8-6.1,30.2
							s2.2,22.1,6.1,30.2c4.1,8.4,9.8,13.1,15.8,13.1s11.7-4.7,15.8-13.1C683,611,685.1,600.3,685.2,588.9L685.2,588.9z"/>
						<path class="st3" d="M711.1,630.2h44.3v1.7h-52.5c0-35.3,45.5-37.5,45.5-66.9c0-11.4-6.6-19-16.9-19c-6.6,0-14.7,7.2-16,12.9
							l-5.1-6.4c6.3-5.2,12.6-8.2,20.9-8.2c17.6,0,25.2,12.9,25.2,22.4C756.5,595.3,714.9,597.6,711.1,630.2z"/>
						<path class="st3" d="M778,630.2h44.3v1.7h-52.6c0-35.3,45.5-37.5,45.5-66.9c0-11.4-6.6-19-16.9-19c-6.6,0-14.7,7.2-16,12.9
							l-5.1-6.4c6.3-5.2,12.6-8.2,20.9-8.2c17.6,0,25.2,12.9,25.2,22.4C823.4,595.3,781.8,597.6,778,630.2z"/>
					</g>
				</g>
			</g>
		</g>
	</g>
</g>
</svg>
