<?xml version="1.0" encoding="UTF-8"?><svg id="a" xmlns="http://www.w3.org/2000/svg" xmlns:xlink="http://www.w3.org/1999/xlink" viewBox="0 0 1920 1224"><defs><style>.l,.m,.n,.o,.p,.q,.r,.s,.t{fill:none;}.m,.u,.v,.w,.x,.o,.y,.q,.r,.s,.a`,.t{font-family:RoxieRossaRegular, Roxie Rossa;}.m,.w{letter-spacing:.66em;}.m,.w,.x,.o,.y,.q,.a`,.t{font-size:46px;}.m,.n,.o,.p,.q,.r,.s,.t{stroke:#000;}.u,.v,.r,.s{font-size:82px;}.u,.r{letter-spacing:.11em;}.x,.o{letter-spacing:.62em;}.aa{letter-spacing:.05em;}.aa,.ab{font-family:SequelSans-RomanHead, Sequel Sans;font-size:70px;}.n{stroke-width:2.78px;}.p{stroke-width:9.06px;}.y,.q{letter-spacing:.65em;}.r,.s{stroke-miterlimit:4.27;stroke-width:1.07px;}.ac{clip-path:url(#c);}.ad{clip-path:url(#b);}.ae{clip-path:url(#f);}.af{clip-path:url(#e);}.ag{clip-path:url(#d);}.ah{clip-path:url(#k);}.ai{clip-path:url(#j);}.aj{clip-path:url(#i);}.ak{clip-path:url(#h);}.al{clip-path:url(#g);}.ab{letter-spacing:.06em;}.am{font-family:SequelSans-RomanBody, Sequel Sans;font-size:27px;}</style><clipPath id="b"><rect class="l" width="1920" height="1080"/></clipPath><clipPath id="c"><rect class="l" width="1920" height="1080"/></clipPath><clipPath id="d"><rect class="l" width="1920" height="1080"/></clipPath><clipPath id="e"><rect class="l" width="1920" height="1080"/></clipPath><clipPath id="f"><rect class="l" width="1920" height="1080"/></clipPath><clipPath id="g"><rect class="l" width="1920" height="1080"/></clipPath><clipPath id="h"><rect class="l" width="1920" height="1080"/></clipPath><clipPath id="i"><rect class="l" width="1920" height="1080"/></clipPath><clipPath id="j"><rect class="l" width="1920" height="1080"/></clipPath><clipPath id="k"><rect class="l" width="1920" height="1080"/></clipPath></defs><text class="am" transform="translate(250.98 995.56)"><tspan x="0" y="0"> </tspan></text><g><path class="n" d="M1701.4,313.44c-17.29,0-31.3,84.54-31.3,188.82s14.01,188.82,31.3,188.82,31.3-84.54,31.3-188.82-14.02-188.82-31.3-188.82h0Zm0,0c-30.81,0-55.78,84.54-55.78,188.82s24.97,188.82,55.78,188.82,55.78-84.54,55.78-188.82-24.97-188.82-55.78-188.82h0Zm0,0c-41.27,0-74.72,84.54-74.72,188.82s33.45,188.82,74.72,188.82,74.72-84.54,74.72-188.82-33.46-188.82-74.72-188.82h0Zm0,0c-53.24,0-96.39,84.54-96.39,188.82s43.15,188.82,96.39,188.82,96.39-84.54,96.39-188.82-43.16-188.82-96.39-188.82h0Zm0,0c-63.96,0-115.81,84.54-115.81,188.82s51.85,188.82,115.81,188.82,115.81-84.54,115.81-188.82-51.85-188.82-115.81-188.82h0Zm0,0c-75.48,0-136.67,84.54-136.67,188.82s61.19,188.82,136.67,188.82,136.67-84.54,136.67-188.82-61.19-188.82-136.67-188.82h0Zm0,0c-86.84,0-157.24,84.54-157.24,188.82s70.4,188.82,157.24,188.82,157.24-84.54,157.24-188.82-70.4-188.82-157.24-188.82h0Zm0,0c-99.49,0-180.14,84.54-180.14,188.82s80.65,188.82,180.14,188.82,180.13-84.54,180.13-188.82-80.65-188.82-180.13-188.82h0Zm0,0c-6.94,0-12.56,84.54-12.56,188.82s5.62,188.82,12.56,188.82,12.55-84.54,12.55-188.82-5.62-188.82-12.55-188.82h0Zm-493.93,531.53c-30.8,0-55.78,84.54-55.78,188.82s24.98,188.82,55.78,188.82,55.79-84.54,55.79-188.82-24.98-188.82-55.79-188.82h0Zm0,0c-53.23,0-96.39,84.54-96.39,188.82s43.16,188.82,96.39,188.82,96.39-84.54,96.39-188.82-43.15-188.82-96.39-188.82h0Zm0,0c-75.48,0-136.67,84.54-136.67,188.82s61.19,188.82,136.67,188.82,136.67-84.54,136.67-188.82-61.18-188.82-136.67-188.82h0Zm0,0c-99.48,0-180.13,84.54-180.13,188.82s80.65,188.82,180.13,188.82,180.14-84.54,180.14-188.82-80.65-188.82-180.14-188.82h0Zm0,0c-6.93,0-12.55,84.54-12.55,188.82s5.62,188.82,12.55,188.82,12.56-84.54,12.56-188.82-5.62-188.82-12.56-188.82h0Z"/><text class="s" transform="translate(1056 397.53)"><tspan x="0" y="0">L</tspan></text></g><text class="v" transform="translate(1056 397.53)"><tspan x="0" y="0">L</tspan></text><g class="ad"><text class="r" transform="translate(1056 466.53)"><tspan x="0" y="0" xml:space="preserve">  </tspan></text><text class="s" transform="translate(1132.75 466.53)"><tspan x="0" y="0">A</tspan></text></g><text class="u" transform="translate(1056 466.53)"><tspan x="0" y="0" xml:space="preserve">  </tspan></text><text class="v" transform="translate(1132.75 466.53)"><tspan x="0" y="0">A</tspan></text><g class="ac"><text class="r" transform="translate(1056 535.54)"><tspan x="0" y="0" xml:space="preserve">    </tspan></text><text class="s" transform="translate(1209.5 535.54)"><tspan x="0" y="0">B</tspan></text></g><text class="u" transform="translate(1056 535.54)"><tspan x="0" y="0" xml:space="preserve">    </tspan></text><text class="v" transform="translate(1209.5 535.54)"><tspan x="0" y="0">B</tspan></text><g class="ag"><text class="r" transform="translate(1056 604.53)"><tspan x="0" y="0" xml:space="preserve">      </tspan></text><text class="s" transform="translate(1286.25 604.53)"><tspan x="0" y="0">O</tspan></text></g><text class="u" transform="translate(1056 604.53)"><tspan x="0" y="0" xml:space="preserve">      </tspan></text><text class="v" transform="translate(1286.25 604.53)"><tspan x="0" y="0">O</tspan></text><g class="af"><text class="r" transform="translate(1056 673.53)"><tspan x="0" y="0" xml:space="preserve">        </tspan></text><text class="s" transform="translate(1363 673.53)"><tspan x="0" y="0">R</tspan></text></g><text class="u" transform="translate(1056 673.53)"><tspan x="0" y="0" xml:space="preserve">        </tspan></text><text class="v" transform="translate(1363 673.53)"><tspan x="0" y="0">R</tspan></text><g class="ae"><text class="r" transform="translate(1056 742.53)"><tspan x="0" y="0" xml:space="preserve">          </tspan></text><text class="s" transform="translate(1439.75 742.53)"><tspan x="0" y="0">A</tspan></text></g><text class="u" transform="translate(1056 742.53)"><tspan x="0" y="0" xml:space="preserve">          </tspan></text><text class="v" transform="translate(1439.75 742.53)"><tspan x="0" y="0">A</tspan></text><g class="al"><text class="r" transform="translate(1056 811.53)"><tspan x="0" y="0" xml:space="preserve">            </tspan></text><text class="s" transform="translate(1516.5 811.53)"><tspan x="0" y="0">T</tspan></text></g><text class="u" transform="translate(1056 811.53)"><tspan x="0" y="0" xml:space="preserve">            </tspan></text><text class="v" transform="translate(1516.5 811.53)"><tspan x="0" y="0">T</tspan></text><g class="ak"><text class="r" transform="translate(1056 880.54)"><tspan x="0" y="0" xml:space="preserve">              </tspan></text><text class="s" transform="translate(1593.25 880.54)"><tspan x="0" y="0">O</tspan></text></g><text class="u" transform="translate(1056 880.54)"><tspan x="0" y="0" xml:space="preserve">              </tspan></text><text class="v" transform="translate(1593.25 880.54)"><tspan x="0" y="0">O</tspan></text><g class="aj"><text class="r" transform="translate(1056 949.53)"><tspan x="0" y="0" xml:space="preserve">                </tspan></text><text class="s" transform="translate(1670 949.53)"><tspan x="0" y="0">R</tspan></text></g><text class="u" transform="translate(1056 949.53)"><tspan x="0" y="0" xml:space="preserve">                </tspan></text><text class="v" transform="translate(1670 949.53)"><tspan x="0" y="0">R</tspan></text><g class="ai"><text class="r" transform="translate(1056 1018.53)"><tspan x="0" y="0" xml:space="preserve">                  </tspan></text><text class="s" transform="translate(1746.75 1018.53)"><tspan x="0" y="0">Y</tspan></text></g><text class="u" transform="translate(1056 1018.53)"><tspan x="0" y="0" xml:space="preserve">                  </tspan></text><text class="v" transform="translate(1746.75 1018.53)"><tspan x="0" y="0">Y</tspan></text><path d="M1016.4,237.5h36.54v-8.73h-46.94v67.5h10.4v-29.57h35.03v-8.55h-35.03v-20.65h0Zm101.34-8.73h-10.4v41.7c0,13.33-6.11,18.39-16.84,18.39s-16.85-5.05-16.85-18.39v-41.7h-10.4v42.75c0,17.3,11.77,26.25,27.25,26.25s27.24-8.96,27.24-26.25v-42.75h0Zm64.12,18.62c-3.28-12.75-11.99-20.13-26.84-20.13-14,0-24.62,7.47-24.62,19.15,0,12.5,8.91,16.01,17.73,18.18l12.32,3.03c7.11,1.71,12.42,3.47,12.42,10.6s-6.3,11.18-15.43,11.18-17.62-3.62-19.08-14.94l-10.32,1.03c2.39,14.46,12.84,22.29,29.22,22.29,14.43,0,26.2-6.62,26.2-19.83,0-14.73-9.85-17.44-20.11-19.98l-11.62-2.67c-6.11-1.43-10.74-3.37-10.74-9.16,0-6.1,5.33-10.5,13.93-10.5s14.74,4.1,16.53,12.59l10.41-.83h0Z"/><path class="p" d="M1409.67,261.58c0-17.63-47.12-31.92-105.26-31.92s-105.26,14.29-105.26,31.92,47.13,31.92,105.26,31.92,105.26-14.29,105.26-31.92h0Z"/><g class="ah"><text class="q" transform="translate(1504 269.18)"><tspan x="0" y="0">IN</tspan></text><text class="o" transform="translate(1603.2 269.18)"><tspan x="0" y="0">SU</tspan></text><text class="m" transform="translate(1719.82 269.18)"><tspan x="0" y="0">LA</tspan></text><text class="t" transform="translate(1834.58 269.18)"><tspan x="0" y="0">R</tspan></text></g><text class="y" transform="translate(1504 269.18)"><tspan x="0" y="0">IN</tspan></text><text class="x" transform="translate(1603.2 269.18)"><tspan x="0" y="0">SU</tspan></text><text class="w" transform="translate(1719.81 269.18)"><tspan x="0" y="0">LA</tspan></text><text class="a`" transform="translate(1834.59 269.18)"><tspan x="0" y="0">R</tspan></text><text class="aa" transform="translate(1119.52 801.71)"><tspan x="0" y="0">20</tspan></text><text class="ab" transform="translate(1211.52 801.71)"><tspan x="0" y="0">22</tspan></text></svg>