<svg width="1848" height="330" viewBox="0 0 1848 330" fill="none" xmlns="http://www.w3.org/2000/svg">
<g clip-path="url(#clip0_103_10)">
<path d="M47.06 55.9996H212.42V16.4496H0V321.9H47.06V188.11H205.57V149.4H47.06V55.9996ZM505.64 16.4496H458.58V205.17C458.58 265.51 430.93 288.37 382.36 288.37C333.79 288.37 306.14 265.51 306.14 205.17V16.4496H259.08V209.91C259.08 288.18 312.31 328.71 382.36 328.71C452.41 328.71 505.65 288.18 505.65 209.91V16.4496H505.64ZM795.79 100.73C780.94 42.9997 741.53 9.63965 674.33 9.63965C611.01 9.63965 562.93 43.4396 562.93 96.2796C562.93 152.83 603.26 168.73 643.17 178.57L698.92 192.26C731.09 199.98 755.13 207.98 755.13 240.26C755.13 271.83 726.61 290.84 685.3 290.84C643.23 290.84 605.56 274.45 598.96 223.22L552.25 227.87C563.06 293.31 610.38 328.74 684.48 328.74C749.78 328.74 803.04 298.74 803.04 239C803.04 172.33 758.47 160.06 712.04 148.59L659.44 136.5C631.83 130.02 610.84 121.24 610.84 95.0497C610.84 67.4397 634.99 47.5296 673.9 47.5296C712.48 47.5296 740.6 66.0796 748.71 104.53L795.79 100.76V100.73Z" fill="black"/>
<path d="M1826.71 164.94C1826.71 85.17 1613.46 20.5 1350.39 20.5C1087.32 20.5 874.06 85.17 874.06 164.94C874.06 244.71 1087.32 309.37 1350.39 309.37C1613.46 309.37 1826.71 244.71 1826.71 164.94V164.94Z" stroke="#040405" stroke-width="41.01"/>
</g>
<defs>
<clipPath id="clip0_103_10">
<rect width="1847.22" height="329.88" fill="white"/>
</clipPath>
</defs>
</svg>
