<svg id="Layer_1" data-name="Layer 1" xmlns="http://www.w3.org/2000/svg" viewBox="0 0 1913.98 606.79"><defs><style>.cls-1,.cls-10,.cls-11,.cls-12,.cls-16,.cls-17,.cls-20,.cls-3,.cls-4,.cls-5,.cls-6{fill:none;}.cls-1,.cls-10,.cls-11,.cls-12,.cls-16,.cls-17,.cls-4,.cls-5,.cls-6{stroke:#000;}.cls-1,.cls-3{stroke-width:3.5px;}.cls-2{font-size:73.05px;font-family:SequelSans-RomanBody, Sequel Sans;}.cls-20,.cls-3{stroke:#e64d3c;}.cls-10,.cls-11,.cls-12,.cls-13,.cls-14,.cls-15,.cls-16,.cls-17,.cls-18,.cls-19,.cls-4,.cls-5,.cls-6,.cls-7,.cls-8,.cls-9{font-size:138.99px;font-family:RoxieRossaRegular, Roxie Rossa;}.cls-10,.cls-11,.cls-12,.cls-16,.cls-17,.cls-4,.cls-5,.cls-6{stroke-miterlimit:5.38;stroke-width:1.35px;}.cls-4,.cls-7{letter-spacing:0.03em;}.cls-5,.cls-8{letter-spacing:0.04em;}.cls-10,.cls-13{letter-spacing:0.06em;}.cls-11,.cls-14{letter-spacing:0.03em;}.cls-12,.cls-15{letter-spacing:0.05em;}.cls-16,.cls-18{letter-spacing:0.01em;}.cls-17,.cls-19{letter-spacing:0.02em;}.cls-20{stroke-width:3.78px;}</style></defs><path class="cls-1" d="M266.45,62.46C244.68,62.46,227,168.93,227,300.25S244.68,538,266.45,538s39.42-106.46,39.42-237.79S288.22,62.46,266.45,62.46Zm0,0c-38.79,0-70.25,106.47-70.25,237.79S227.66,538,266.45,538,336.7,431.58,336.7,300.25,305.25,62.46,266.45,62.46Zm0,0c-52,0-94.09,106.47-94.09,237.79S214.48,538,266.45,538s94.1-106.46,94.1-237.79S318.42,62.46,266.45,62.46Zm0,0c-67,0-121.39,106.47-121.39,237.79S199.41,538,266.45,538,387.84,431.58,387.84,300.25,333.49,62.46,266.45,62.46Zm0,0c-80.54,0-145.84,106.47-145.84,237.79S185.91,538,266.45,538,412.29,431.58,412.29,300.25,347,62.46,266.45,62.46Zm0,0c-95,0-172.11,106.47-172.11,237.79S171.4,538,266.45,538,438.57,431.58,438.57,300.25,361.51,62.46,266.45,62.46Zm0,0c-109.36,0-198,106.47-198,237.79S157.09,538,266.45,538s198-106.46,198-237.79-88.66-237.79-198-237.79Zm0,0C141.17,62.46,39.6,168.93,39.6,300.25S141.17,538,266.45,538,493.31,431.58,493.31,300.25,391.74,62.46,266.45,62.46Zm0,0c-8.73,0-15.81,106.47-15.81,237.79S257.72,538,266.45,538s15.82-106.46,15.82-237.79S275.19,62.46,266.45,62.46Z"/><text class="cls-2" transform="translate(1627.29 119.86)">Lisboa</text><path class="cls-3" d="M480.54,62.46c-38.8,0-70.25,106.47-70.25,237.79S441.74,538,480.54,538s70.25-106.46,70.25-237.79S519.34,62.46,480.54,62.46Zm0,0c-67,0-121.39,106.47-121.39,237.79S413.5,538,480.54,538,601.93,431.58,601.93,300.25,547.58,62.46,480.54,62.46Zm0,0c-95.06,0-172.11,106.47-172.11,237.79S385.48,538,480.54,538,652.65,431.58,652.65,300.25,575.6,62.46,480.54,62.46Zm0,0c-125.29,0-226.85,106.47-226.85,237.79S355.25,538,480.54,538,707.39,431.58,707.39,300.25,605.83,62.46,480.54,62.46Zm0,0c-8.73,0-15.81,106.47-15.81,237.79S471.81,538,480.54,538s15.81-106.46,15.81-237.79S489.27,62.46,480.54,62.46Z"/><text class="cls-4" transform="translate(737.1 166.63)">OP</text><text class="cls-5" transform="translate(942.37 166.63)">EN</text><text class="cls-6" transform="translate(1110.32 166.63)"> </text><text class="cls-7" transform="translate(737.1 166.63)">OP</text><text class="cls-8" transform="translate(942.37 166.63)">EN</text><text class="cls-9" transform="translate(1110.32 166.63)"> </text><text class="cls-10" transform="translate(737.1 339.61)"><tspan xml:space="preserve">       </tspan></text><text class="cls-11" transform="translate(1143.78 339.61)">CA</text><text class="cls-12" transform="translate(1348.59 339.61)">LL</text><text class="cls-6" transform="translate(1490.07 339.61)"> </text><text class="cls-13" transform="translate(737.1 339.61)"><tspan xml:space="preserve">       </tspan></text><text class="cls-14" transform="translate(1143.78 339.61)">CA</text><text class="cls-15" transform="translate(1348.58 339.61)">LL</text><text class="cls-9" transform="translate(1490.06 339.61)"> </text><text class="cls-10" transform="translate(737.1 512.61)"><tspan xml:space="preserve">              </tspan></text><text class="cls-16" transform="translate(1550.45 512.61)">20</text><text class="cls-17" transform="translate(1707.84 512.61)">22</text><text class="cls-13" transform="translate(737.1 512.61)"><tspan xml:space="preserve">              </tspan></text><text class="cls-18" transform="translate(1550.45 512.61)">20</text><text class="cls-19" transform="translate(1707.84 512.61)">22</text><text class="cls-2" transform="translate(732.06 429.21)">Candidaturas</text><text class="cls-2" transform="translate(732.06 516.86)"><tspan xml:space="preserve">20 Maio       30 Junho</tspan></text><path class="cls-20" d="M1026.07,493.51h98.24m-7-6.5,7,6.5-7,6.5"/></svg>