<?xml version="1.0" encoding="UTF-8"?><svg id="a" xmlns="http://www.w3.org/2000/svg" xmlns:xlink="http://www.w3.org/1999/xlink" viewBox="0 0 960 908.63"><defs><style>.l,.m,.n,.o,.p{fill:none;}.m{stroke-width:2.78px;}.m,.n,.o,.p{stroke:#000;}.n{stroke-width:9.06px;}.o{stroke-miterlimit:4.27;stroke-width:1.07px;}.q{clip-path:url(#c);}.r{clip-path:url(#b);}.s{clip-path:url(#f);}.t{clip-path:url(#e);}.u{clip-path:url(#d);}.v{clip-path:url(#k);}.w{clip-path:url(#j);}.x{clip-path:url(#i);}.y{clip-path:url(#h);}.a`{clip-path:url(#g);}</style><clipPath id="b"><rect class="l" x="-960" y="-191.37" width="1920" height="1080"/></clipPath><clipPath id="c"><rect class="l" x="-960" y="-191.37" width="1920" height="1080"/></clipPath><clipPath id="d"><rect class="l" x="-960" y="-191.37" width="1920" height="1080"/></clipPath><clipPath id="e"><rect class="l" x="-960" y="-191.37" width="1920" height="1080"/></clipPath><clipPath id="f"><rect class="l" x="-960" y="-191.37" width="1920" height="1080"/></clipPath><clipPath id="g"><rect class="l" x="-960" y="-191.37" width="1920" height="1080"/></clipPath><clipPath id="h"><rect class="l" x="-960" y="-191.37" width="1920" height="1080"/></clipPath><clipPath id="i"><rect class="l" x="-960" y="-191.37" width="1920" height="1080"/></clipPath><clipPath id="j"><rect class="l" x="-960" y="-191.37" width="1920" height="1080"/></clipPath><clipPath id="k"><rect class="l" x="-960" y="-191.37" width="1920" height="1080"/></clipPath></defs><g><path class="m" d="M741.4,122.07c-17.29,0-31.3,84.54-31.3,188.82s14.01,188.82,31.3,188.82,31.3-84.54,31.3-188.82-14.02-188.82-31.3-188.82h0Zm0,0c-30.81,0-55.78,84.54-55.78,188.82s24.97,188.82,55.78,188.82,55.78-84.54,55.78-188.82-24.97-188.82-55.78-188.82h0Zm0,0c-41.27,0-74.72,84.54-74.72,188.82s33.45,188.82,74.72,188.82,74.72-84.54,74.72-188.82-33.46-188.82-74.72-188.82h0Zm0,0c-53.24,0-96.39,84.54-96.39,188.82s43.15,188.82,96.39,188.82,96.39-84.54,96.39-188.82-43.16-188.82-96.39-188.82h0Zm0,0c-63.96,0-115.81,84.54-115.81,188.82s51.85,188.82,115.81,188.82,115.81-84.54,115.81-188.82-51.85-188.82-115.81-188.82h0Zm0,0c-75.48,0-136.67,84.54-136.67,188.82s61.19,188.82,136.67,188.82,136.67-84.54,136.67-188.82-61.19-188.82-136.67-188.82h0Zm0,0c-86.84,0-157.24,84.54-157.24,188.82s70.4,188.82,157.24,188.82,157.24-84.54,157.24-188.82-70.4-188.82-157.24-188.82h0Zm0,0c-99.49,0-180.14,84.54-180.14,188.82s80.65,188.82,180.14,188.82,180.13-84.54,180.13-188.82-80.65-188.82-180.13-188.82h0Zm0,0c-6.94,0-12.56,84.54-12.56,188.82s5.62,188.82,12.56,188.82,12.55-84.54,12.55-188.82-5.62-188.82-12.55-188.82h0ZM247.47,653.59c-30.8,0-55.78,84.54-55.78,188.82s24.98,188.82,55.78,188.82,55.79-84.54,55.79-188.82-24.98-188.82-55.79-188.82h0Zm0,0c-53.23,0-96.39,84.54-96.39,188.82s43.16,188.82,96.39,188.82,96.39-84.54,96.39-188.82-43.15-188.82-96.39-188.82h0Zm0,0c-75.48,0-136.67,84.54-136.67,188.82s61.19,188.82,136.67,188.82,136.67-84.54,136.67-188.82-61.18-188.82-136.67-188.82h0Zm0,0c-99.48,0-180.13,84.54-180.13,188.82s80.65,188.82,180.13,188.82,180.14-84.54,180.14-188.82-80.65-188.82-180.14-188.82h0Zm0,0c-6.93,0-12.55,84.54-12.55,188.82s5.62,188.82,12.55,188.82,12.56-84.54,12.56-188.82-5.62-188.82-12.56-188.82h0Z"/><path class="o" d="M134.69,193.58l-1.29,12.58h-35.44c3.7-.93,5.5-5.83,5.54-13.07h0v-31.27h0c-.04-7.23-1.84-12.13-5.54-13.07h16.55c-3.69,.93-5.5,5.83-5.54,13.07h0v43.22h12.65c7.23-.04,12.13-7.76,13.07-11.46Z"/></g><path d="M134.69,193.58l-1.29,12.58h-35.44c3.7-.93,5.5-5.83,5.54-13.07h0v-31.27h0c-.04-7.23-1.84-12.13-5.54-13.07h16.55c-3.69,.93-5.5,5.83-5.54,13.07h0v43.22h12.65c7.23-.04,12.13-7.76,13.07-11.46Z"/><g class="r"><path class="o" d="M230.17,275.16h-16.55c3.69-.93,3.2-6.34,.77-13.06l-5.48-15.08h-17.38l-5.49,15.1c-2.42,6.72-.58,12.11,3.11,13.04h-16.55c3.7-.93,9.67-5.79,12.34-13.07l14.73-40.5-1.4-3.84h5.47l16.13,44.33c2.67,7.28,6.61,12.13,10.31,13.07Zm-21.67-29.26l-8.28-22.77-8.28,22.77h16.57Z"/></g><path d="M230.17,275.16h-16.55c3.69-.93,3.2-6.34,.77-13.06l-5.48-15.08h-17.38l-5.49,15.1c-2.42,6.72-.58,12.11,3.11,13.04h-16.55c3.7-.93,9.67-5.79,12.34-13.07l14.73-40.5-1.4-3.84h5.47l16.13,44.33c2.67,7.28,6.61,12.13,10.31,13.07Zm-21.67-29.26l-8.28-22.77-8.28,22.77h16.57Z"/><g class="q"><path class="o" d="M300.21,327.25c.91,12.6-10.68,16.91-27.05,16.91h-21.69c3.7-.93,5.5-5.83,5.54-13.07h0v-31.27h0c-.04-7.23-1.84-12.13-5.54-13.07h16.58c16.38,0,27.05,5.44,27.05,12.13,0,5.58-6,9.13-15.91,10.56,12.77,1.75,20.39,9.08,21.02,17.79Zm-37.73-39.37v21.18h5.56c4.05,0,8.09-.24,11.84-.94,11.69-2.18,11.17-10.02,7.25-14.11-4.38-4.56-11.85-6.13-19.09-6.13h-5.56Zm29.77,31.49c-4.37-6.84-11.85-9.2-19.09-9.2h-10.68v32.87h10.68c4.05,0,8.09-.35,11.84-1.4,11.69-3.26,11.17-16.15,7.25-22.27Z"/></g><path d="M300.21,327.25c.91,12.6-10.68,16.91-27.05,16.91h-21.69c3.7-.93,5.5-5.83,5.54-13.07h0v-31.27h0c-.04-7.23-1.84-12.13-5.54-13.07h16.58c16.38,0,27.05,5.44,27.05,12.13,0,5.58-6,9.13-15.91,10.56,12.77,1.75,20.39,9.08,21.02,17.79Zm-37.73-39.37v21.18h5.56c4.05,0,8.09-.24,11.84-.94,11.69-2.18,11.17-10.02,7.25-14.11-4.38-4.56-11.85-6.13-19.09-6.13h-5.56Zm29.77,31.49c-4.37-6.84-11.85-9.2-19.09-9.2h-10.68v32.87h10.68c4.05,0,8.09-.35,11.84-1.4,11.69-3.26,11.17-16.15,7.25-22.27Z"/><g class="u"><path class="o" d="M358.52,414.11c-16.38,0-29.65-13.27-29.65-29.65s13.27-29.65,29.65-29.65,29.65,13.27,29.65,29.65-13.27,29.65-29.65,29.65Zm11.84-3.65c11.69-5.32,15.86-21.28,9.32-35.63-6.54-14.36-21.31-21.68-33-16.36s-15.86,21.28-9.32,35.63c6.54,14.36,21.31,21.68,33,16.36Z"/></g><path d="M358.52,414.11c-16.38,0-29.65-13.27-29.65-29.65s13.27-29.65,29.65-29.65,29.65,13.27,29.65,29.65-13.27,29.65-29.65,29.65Zm11.84-3.65c11.69-5.32,15.86-21.28,9.32-35.63-6.54-14.36-21.31-21.68-33-16.36s-15.86,21.28-9.32,35.63c6.54,14.36,21.31,21.68,33,16.36Z"/><g class="t"><path class="o" d="M415.98,459.86v9.23h0c.04,7.23,1.84,12.13,5.54,13.07h-16.55c3.7-.93,5.5-5.83,5.54-13.07h0v-31.27h0c-.04-7.23-1.84-12.13-5.54-13.07h21.69c16.38,0,27.96,4.31,27.05,16.92-.57,7.94-6.95,14.72-17.73,17.19l6.98,10.23h0c4.94,7.24,10.77,12.13,14.47,13.07h-16.55c3.58-.91,1.22-6.19-2.98-12.46l-6.85-10.04c-1.41,.14-2.87,.21-4.39,.21h-10.68Zm0-33.99v32.88h10.68c1.21,0,2.42-.07,3.63-.21l3.76-2.5,1.02,1.5c4.21-1.32,8.01-3.83,10.68-7.98,3.92-6.13,4.44-19.01-7.25-22.27-3.75-1.05-7.79-1.4-11.84-1.4h-10.68Z"/></g><path d="M415.98,459.86v9.23h0c.04,7.23,1.84,12.13,5.54,13.07h-16.55c3.7-.93,5.5-5.83,5.54-13.07h0v-31.27h0c-.04-7.23-1.84-12.13-5.54-13.07h21.69c16.38,0,27.96,4.31,27.05,16.92-.57,7.94-6.95,14.72-17.73,17.19l6.98,10.23h0c4.94,7.24,10.77,12.13,14.47,13.07h-16.55c3.58-.91,1.22-6.19-2.98-12.46l-6.85-10.04c-1.41,.14-2.87,.21-4.39,.21h-10.68Zm0-33.99v32.88h10.68c1.21,0,2.42-.07,3.63-.21l3.76-2.5,1.02,1.5c4.21-1.32,8.01-3.83,10.68-7.98,3.92-6.13,4.44-19.01-7.25-22.27-3.75-1.05-7.79-1.4-11.84-1.4h-10.68Z"/><g class="s"><path class="o" d="M537.17,551.16h-16.55c3.69-.93,3.2-6.34,.77-13.07l-5.48-15.08h-17.38l-5.49,15.1c-2.42,6.71-.58,12.11,3.11,13.04h-16.55c3.7-.93,9.67-5.79,12.34-13.07l14.73-40.5-1.4-3.84h5.47l16.13,44.33c2.67,7.28,6.61,12.13,10.31,13.07Zm-21.67-29.26l-8.28-22.77-8.28,22.77h16.57Z"/></g><path d="M537.17,551.16h-16.55c3.69-.93,3.2-6.34,.77-13.07l-5.48-15.08h-17.38l-5.49,15.1c-2.42,6.71-.58,12.11,3.11,13.04h-16.55c3.7-.93,9.67-5.79,12.34-13.07l14.73-40.5-1.4-3.84h5.47l16.13,44.33c2.67,7.28,6.61,12.13,10.31,13.07Zm-21.67-29.26l-8.28-22.77-8.28,22.77h16.57Z"/><g class="a`"><path class="o" d="M580.58,607.09v-43.22h-10.11c-7.23,.04-12.13,7.76-13.07,11.46l1.29-12.58h49.24l1.29,12.58c-.93-3.7-5.83-11.42-13.07-11.46h-10.11v43.22h0c.04,7.23,1.84,12.13,5.54,13.07h-16.55c3.7-.93,5.5-5.83,5.54-13.07h0Z"/></g><path d="M580.58,607.09v-43.22h-10.11c-7.23,.04-12.13,7.76-13.07,11.46l1.29-12.58h49.24l1.29,12.58c-.93-3.7-5.83-11.42-13.07-11.46h-10.11v43.22h0c.04,7.23,1.84,12.13,5.54,13.07h-16.55c3.7-.93,5.5-5.83,5.54-13.07h0Z"/><g class="y"><path class="o" d="M665.52,690.11c-16.38,0-29.65-13.27-29.65-29.65s13.27-29.65,29.65-29.65,29.65,13.27,29.65,29.65-13.27,29.65-29.65,29.65Zm11.84-3.65c11.69-5.32,15.86-21.28,9.32-35.63-6.54-14.36-21.31-21.68-33-16.36s-15.86,21.28-9.32,35.63c6.54,14.36,21.31,21.68,33,16.36Z"/></g><path d="M665.52,690.11c-16.38,0-29.65-13.27-29.65-29.65s13.27-29.65,29.65-29.65,29.65,13.27,29.65,29.65-13.27,29.65-29.65,29.65Zm11.84-3.65c11.69-5.32,15.86-21.28,9.32-35.63-6.54-14.36-21.31-21.68-33-16.36s-15.86,21.28-9.32,35.63c6.54,14.36,21.31,21.68,33,16.36Z"/><g class="x"><path class="o" d="M722.98,735.86v9.23h0c.04,7.23,1.84,12.13,5.54,13.07h-16.55c3.7-.93,5.5-5.83,5.54-13.07h0v-31.27h0c-.04-7.23-1.84-12.13-5.54-13.07h21.69c16.38,0,27.96,4.31,27.05,16.92-.57,7.94-6.95,14.72-17.73,17.19l6.98,10.23h0c4.94,7.24,10.77,12.13,14.47,13.07h-16.55c3.58-.91,1.22-6.19-2.98-12.46l-6.85-10.04c-1.41,.14-2.87,.21-4.39,.21h-10.68Zm0-33.99v32.88h10.68c1.21,0,2.42-.07,3.63-.21l3.76-2.5,1.02,1.5c4.21-1.32,8.01-3.83,10.68-7.98,3.92-6.13,4.44-19.01-7.25-22.27-3.75-1.05-7.79-1.4-11.84-1.4h-10.68Z"/></g><path d="M722.98,735.86v9.23h0c.04,7.23,1.84,12.13,5.54,13.07h-16.55c3.7-.93,5.5-5.83,5.54-13.07h0v-31.27h0c-.04-7.23-1.84-12.13-5.54-13.07h21.69c16.38,0,27.96,4.31,27.05,16.92-.57,7.94-6.95,14.72-17.73,17.19l6.98,10.23h0c4.94,7.24,10.77,12.13,14.47,13.07h-16.55c3.58-.91,1.22-6.19-2.98-12.46l-6.85-10.04c-1.41,.14-2.87,.21-4.39,.21h-10.68Zm0-33.99v32.88h10.68c1.21,0,2.42-.07,3.63-.21l3.76-2.5,1.02,1.5c4.21-1.32,8.01-3.83,10.68-7.98,3.92-6.13,4.44-19.01-7.25-22.27-3.75-1.05-7.79-1.4-11.84-1.4h-10.68Z"/><g class="w"><path class="o" d="M843.9,769.76c-3.7,.93-10.14,5.95-13.54,13.07l-13.71,28.64h0l-1.26,2.63h0l-.25,.52h0c-5.44,11.27-9.71,17.14-16.06,21.29-4.6,3.01-9.69,4.67-14.79,5.01v-6.46c5,.52,9.83-.21,13.9-2.16,7.26-3.48,11.8-9.51,16.19-18.65l1.05-2.18h-4.25l-13.96-28.65c-3.57-7.33-7.87-12.13-11.57-13.07h16.55c-3.69,.93-2.45,6.43,.49,13.07l13.35,27.38,13.17-27.38c3.17-6.6,1.83-12.13-1.86-13.07h16.55Z"/></g><path d="M843.9,769.76c-3.7,.93-10.14,5.95-13.54,13.07l-13.71,28.64h0l-1.26,2.63h0l-.25,.52h0c-5.44,11.27-9.71,17.14-16.06,21.29-4.6,3.01-9.69,4.67-14.79,5.01v-6.46c5,.52,9.83-.21,13.9-2.16,7.26-3.48,11.8-9.51,16.19-18.65l1.05-2.18h-4.25l-13.96-28.65c-3.57-7.33-7.87-12.13-11.57-13.07h16.55c-3.69,.93-2.45,6.43,.49,13.07l13.35,27.38,13.17-27.38c3.17-6.6,1.83-12.13-1.86-13.07h16.55Z"/><path d="M56.4,46.13h36.54v-8.73H46V104.89h10.4v-29.57h35.03v-8.55H56.4v-20.65h0Zm101.34-8.73h-10.4v41.7c0,13.33-6.11,18.39-16.84,18.39s-16.85-5.05-16.85-18.39V37.39h-10.4v42.75c0,17.3,11.77,26.25,27.25,26.25s27.24-8.96,27.24-26.25V37.39h0Zm64.12,18.62c-3.28-12.75-11.99-20.13-26.84-20.13-14,0-24.62,7.47-24.62,19.15,0,12.5,8.91,16.01,17.73,18.18l12.32,3.03c7.11,1.71,12.42,3.47,12.42,10.6s-6.3,11.18-15.43,11.18-17.62-3.62-19.08-14.94l-10.32,1.03c2.39,14.46,12.84,22.29,29.22,22.29,14.43,0,26.2-6.62,26.2-19.83,0-14.73-9.85-17.44-20.11-19.98l-11.62-2.67c-6.11-1.43-10.74-3.37-10.74-9.16,0-6.1,5.33-10.5,13.93-10.5s14.74,4.1,16.53,12.59l10.41-.83h0Z"/><path class="n" d="M449.67,70.21c0-17.63-47.12-31.92-105.26-31.92s-105.26,14.29-105.26,31.92,47.13,31.92,105.26,31.92,105.26-14.29,105.26-31.92h0Z"/><g class="v"><g><path class="p" d="M551.28,70.48c.02,4.06,1.03,6.81,3.11,7.33h-9.29c2.07-.52,3.09-3.27,3.11-7.33v-17.54c-.02-4.06-1.04-6.81-3.11-7.33h9.29c-2.07,.52-3.09,3.27-3.11,7.33v17.54Z"/><path class="p" d="M608.31,77.81l-17.45-29.94v22.61c.02,4.06,2.26,6.81,4.33,7.33h-9.29c2.07-.52,4.31-3.27,4.33-7.33v-17.54c-.02-4.06-2.26-6.81-4.33-7.33h6.71l16.92,29.03v-21.7c-.02-4.06-2.26-6.81-4.33-7.33h9.29c-2.07,.52-4.31,3.27-4.33,7.33v22.78l1.22,2.09h-3.07Z"/></g><g><path class="p" d="M644.53,75.03h.01l2.16-2.57h0l1.83-2.17c-.94,1.92-.45,3.8,3.91,5.73,4.02,1.56,8.59,1.89,11.29,.27,5.15-3.1,3.38-11.48-9.14-13.89-13.63-2.63-10.2-12.81-4.64-15.83,2.1-1.14,4.45-1.5,6.91-1.5,3.74,0,7.18,1.23,9.96,3.31h-.01l-.91,1.09h0l-2.98,3.53c.94-1.92,.53-3.92-3.83-5.85-3.08-1.32-6.33-1.53-8.88-.02-4.2,2.47-3.45,10.13,4.47,11.79,17.6,3.7,16.99,13.92,9.31,17.93-6.43,3.35-16.7,.27-19.48-1.81Z"/><path class="p" d="M702.38,69.26v-16.33h0c-.02-4.06-1.03-6.81-3.11-7.33h9.29c-2.07,.52-3.09,3.27-3.11,7.33h0v16.33c0,5.5,3.97,8.45,8.87,8.45s8.87-2.95,8.87-8.45v-16.33h0c-.02-4.06-1.03-6.81-3.11-7.33h9.29c-2.07,.52-3.09,3.27-3.11,7.33h0v16.33c0,6.76-5.34,9.08-11.94,9.08s-11.93-2.32-11.93-9.08Z"/></g><g><path class="p" d="M781.53,70.75l-.72,7.06h-19.88c2.07-.52,3.09-3.27,3.11-7.33v-17.54c-.02-4.06-1.04-6.81-3.11-7.33h9.29c-2.07,.52-3.09,3.27-3.11,7.33v24.25h7.1c4.06-.02,6.81-4.36,7.33-6.43Z"/><path class="p" d="M844.43,77.81h-9.29c2.07-.52,1.79-3.56,.43-7.33l-3.08-8.46h-9.75l-3.08,8.47c-1.36,3.77-.33,6.79,1.74,7.32h-9.29c2.07-.52,5.42-3.25,6.92-7.33l8.27-22.72-.78-2.15h3.07l9.05,24.87c1.5,4.08,3.71,6.81,5.78,7.33Zm-12.16-16.42l-4.65-12.77-4.65,12.77h9.29Z"/></g><path class="p" d="M881.86,65.3v5.18c.02,4.06,1.03,6.81,3.11,7.33h-9.29c2.07-.52,3.09-3.27,3.11-7.33v-17.54c-.02-4.06-1.04-6.81-3.11-7.33h12.17c9.19,0,15.69,2.42,15.18,9.49-.32,4.45-3.9,8.26-9.95,9.65l3.92,5.74h0c2.77,4.06,6.04,6.81,8.12,7.33h-9.29c2.01-.51,.69-3.47-1.67-6.99l-3.84-5.63c-.79,.08-1.61,.12-2.46,.12h-5.99Zm0-19.07v18.44h5.99c.68,0,1.36-.04,2.04-.12l2.11-1.4,.57,.84c2.36-.74,4.5-2.15,5.99-4.48,2.2-3.44,2.49-10.67-4.07-12.5-2.11-.59-4.37-.79-6.64-.79h-5.99Z"/></g><g><path d="M551.28,70.48c.02,4.06,1.03,6.81,3.11,7.33h-9.29c2.07-.52,3.09-3.27,3.11-7.33v-17.54c-.02-4.06-1.04-6.81-3.11-7.33h9.29c-2.07,.52-3.09,3.27-3.11,7.33v17.54Z"/><path d="M608.31,77.81l-17.45-29.94v22.61c.02,4.06,2.26,6.81,4.33,7.33h-9.29c2.07-.52,4.31-3.27,4.33-7.33v-17.54c-.02-4.06-2.26-6.81-4.33-7.33h6.71l16.92,29.03v-21.7c-.02-4.06-2.26-6.81-4.33-7.33h9.29c-2.07,.52-4.31,3.27-4.33,7.33v22.78l1.22,2.09h-3.07Z"/></g><g><path d="M644.53,75.03h.01l2.16-2.57h0l1.83-2.17c-.94,1.92-.45,3.8,3.91,5.73,4.02,1.56,8.59,1.89,11.29,.27,5.15-3.1,3.38-11.48-9.14-13.89-13.63-2.63-10.2-12.81-4.64-15.83,2.1-1.14,4.45-1.5,6.91-1.5,3.74,0,7.18,1.23,9.96,3.31h-.01l-.91,1.09h0l-2.98,3.53c.94-1.92,.53-3.92-3.83-5.85-3.08-1.32-6.33-1.53-8.88-.02-4.2,2.47-3.45,10.13,4.47,11.79,17.6,3.7,16.99,13.92,9.31,17.93-6.43,3.35-16.7,.27-19.48-1.81Z"/><path d="M702.38,69.26v-16.33h0c-.02-4.06-1.03-6.81-3.11-7.33h9.29c-2.07,.52-3.09,3.27-3.11,7.33h0v16.33c0,5.5,3.97,8.45,8.87,8.45s8.87-2.95,8.87-8.45v-16.33h0c-.02-4.06-1.03-6.81-3.11-7.33h9.29c-2.07,.52-3.09,3.27-3.11,7.33h0v16.33c0,6.76-5.34,9.08-11.94,9.08s-11.93-2.32-11.93-9.08Z"/></g><g><path d="M781.52,70.75l-.72,7.06h-19.88c2.07-.52,3.09-3.27,3.11-7.33v-17.54c-.02-4.06-1.04-6.81-3.11-7.33h9.29c-2.07,.52-3.09,3.27-3.11,7.33v24.25h7.1c4.06-.02,6.81-4.36,7.33-6.43Z"/><path d="M844.42,77.81h-9.29c2.07-.52,1.79-3.56,.43-7.33l-3.08-8.46h-9.75l-3.08,8.47c-1.36,3.77-.33,6.79,1.74,7.32h-9.29c2.07-.52,5.42-3.25,6.92-7.33l8.27-22.72-.78-2.15h3.07l9.05,24.87c1.5,4.08,3.71,6.81,5.78,7.33Zm-12.16-16.42l-4.65-12.77-4.65,12.77h9.29Z"/></g><path d="M881.87,65.3v5.18c.02,4.06,1.03,6.81,3.11,7.33h-9.29c2.07-.52,3.09-3.27,3.11-7.33v-17.54c-.02-4.06-1.04-6.81-3.11-7.33h12.17c9.19,0,15.69,2.42,15.18,9.49-.32,4.45-3.9,8.26-9.95,9.65l3.92,5.74h0c2.77,4.06,6.04,6.81,8.12,7.33h-9.29c2.01-.51,.69-3.47-1.67-6.99l-3.84-5.63c-.79,.08-1.61,.12-2.46,.12h-5.99Zm0-19.07v18.44h5.99c.68,0,1.36-.04,2.04-.12l2.11-1.4,.57,.84c2.36-.74,4.5-2.15,5.99-4.48,2.2-3.44,2.49-10.67-4.07-12.5-2.11-.59-4.37-.79-6.64-.79h-5.99Z"/><g><path d="M195.56,610.34h-33.37v-2.22c0-11.08,7.65-15.96,12.71-19.17l6.73-4.33c2.91-1.89,6.72-4.84,6.72-9.79,0-5.76-3.21-8.61-8.97-8.61s-9.38,4.08-10.09,10.9l-7.1-.75c1.06-10.42,8.59-16.01,17.19-16.01s16.41,4.36,16.41,14.2-7.39,13-11.88,15.93l-6.11,3.98c-5.73,3.7-7.55,7.15-7.75,9.54h25.53v6.34Z"/><path d="M244.01,585.83c0,19.26-8.97,25.48-18.8,25.48s-18.8-6.22-18.8-25.48,8.97-25.55,18.8-25.55,18.8,6.22,18.8,25.55Zm-7.44,0c0-16.03-5.39-19.69-11.36-19.69s-11.36,3.66-11.36,19.69,5.39,19.62,11.36,19.62,11.36-3.66,11.36-19.62Z"/></g><g><path d="M287.57,610.34h-33.37v-2.22c0-11.08,7.65-15.96,12.71-19.17l6.73-4.33c2.91-1.89,6.72-4.84,6.72-9.79,0-5.76-3.21-8.61-8.97-8.61s-9.38,4.08-10.09,10.9l-7.1-.75c1.06-10.42,8.59-16.01,17.19-16.01s16.41,4.36,16.41,14.2-7.39,13-11.88,15.93l-6.11,3.98c-5.73,3.7-7.55,7.15-7.75,9.54h25.53v6.34Z"/><path d="M331.74,610.34h-33.37v-2.22c0-11.08,7.65-15.96,12.71-19.17l6.73-4.33c2.91-1.89,6.72-4.84,6.72-9.79,0-5.76-3.21-8.61-8.97-8.61s-9.38,4.08-10.09,10.9l-7.1-.75c1.06-10.42,8.59-16.01,17.19-16.01s16.41,4.36,16.41,14.2-7.39,13-11.88,15.93l-6.11,3.98c-5.73,3.7-7.55,7.15-7.75,9.54h25.53v6.34Z"/></g></svg>